<svg version="1.1" viewBox="0.0 0.0 128.0 128.0" fill="none" stroke="none" stroke-linecap="square" stroke-miterlimit="10" xmlns:xlink="http://www.w3.org/1999/xlink" xmlns="http://www.w3.org/2000/svg"><clipPath id="p.0"><path d="m0 0l128.0 0l0 128.0l-128.0 0l0 -128.0z" clip-rule="nonzero"/></clipPath><g clip-path="url(#p.0)"><path fill="#000000" fill-opacity="0.0" d="m0 0l128.0 0l0 128.0l-128.0 0z" fill-rule="evenodd"/><path fill="#000000" d="m8.880366 84.5909l18.236221 -5.8582687l11.464567 35.46457l-18.236221 5.8582687z" fill-rule="evenodd"/><path stroke="#000000" stroke-width="1.0" stroke-linejoin="round" stroke-linecap="butt" d="m8.880366 84.5909l18.236221 -5.8582687l11.464567 35.46457l-18.236221 5.8582687z" fill-rule="evenodd"/><path fill="#000000" d="m33.04331 76.86352l26.204723 -14.769028l31.761154 0.63517l0.16010284 8.732285l-27.314957 1.5879211l-3.1758537 0l0.317585 8.417328l30.490814 -0.47506714l9.68766 -6.6692886l2.698166 -4.448822l13.816277 0l1.4304428 6.194229l-49.073494 35.572174l-25.727032 0.6377945z" fill-rule="evenodd"/><path stroke="#000000" stroke-width="1.0" stroke-linejoin="round" stroke-linecap="butt" d="m33.04331 76.86352l26.204723 -14.769028l31.761154 0.63517l0.16010284 8.732285l-27.314957 1.5879211l-3.1758537 0l0.317585 8.417328l30.490814 -0.47506714l9.68766 -6.6692886l2.698166 -4.448822l13.816277 0l1.4304428 6.194229l-49.073494 35.572174l-25.727032 0.6377945z" fill-rule="evenodd"/><path fill="#000000" d="m43.501312 24.480433l0 0c0 -3.2586899 2.6416893 -5.900379 5.900379 -5.900379l39.50633 0c1.5648804 0 3.0656586 0.621645 4.1721954 1.7281799c1.1065369 1.1065369 1.7281799 2.6073208 1.7281799 4.1721992l0 23.600813c0 3.2586899 -2.6416855 5.900383 -5.9003754 5.900383l-39.50633 0c-3.2586899 0 -5.900379 -2.641693 -5.900379 -5.900383z" fill-rule="evenodd"/><path stroke="#000000" stroke-width="1.0" stroke-linejoin="round" stroke-linecap="butt" d="m43.501312 24.480433l0 0c0 -3.2586899 2.6416893 -5.900379 5.900379 -5.900379l39.50633 0c1.5648804 0 3.0656586 0.621645 4.1721954 1.7281799c1.1065369 1.1065369 1.7281799 2.6073208 1.7281799 4.1721992l0 23.600813c0 3.2586899 -2.6416855 5.900383 -5.9003754 5.900383l-39.50633 0c-3.2586899 0 -5.900379 -2.641693 -5.900379 -5.900383z" fill-rule="evenodd"/><path fill="#000000" fill-opacity="0.0" d="m51.77204 53.029488c-1.7467194 -0.26465225 -8.415573 0.23840714 -10.480316 -1.587925c-2.064743 -1.8263359 -1.6430435 -2.5940514 -1.9081383 -9.370079c-0.26509094 -6.7760277 -3.0441818 -25.38364 0.3175888 -31.286089c3.3617668 -5.90245 15.856079 -4.5787406 19.853016 -4.128609c3.9969368 0.45013094 -1.1119843 5.797025 4.1286087 6.829396c5.240593 1.0323715 22.047684 -1.0078735 27.314964 -0.63517c5.267273 0.37270355 3.5739288 2.392826 4.2887115 2.8713913" fill-rule="evenodd"/><path stroke="#000000" stroke-width="4.0" stroke-linejoin="round" stroke-linecap="butt" d="m51.77204 53.029488c-1.7467194 -0.26465225 -8.415573 0.23840714 -10.480316 -1.587925c-2.064743 -1.8263359 -1.6430435 -2.5940514 -1.9081383 -9.370079c-0.26509094 -6.7760277 -3.0441818 -25.38364 0.3175888 -31.286089c3.3617668 -5.90245 15.856079 -4.5787406 19.853016 -4.128609c3.9969368 0.45013094 -1.1119843 5.797025 4.1286087 6.829396c5.240593 1.0323715 22.047684 -1.0078735 27.314964 -0.63517c5.267273 0.37270355 3.5739288 2.392826 4.2887115 2.8713913" fill-rule="evenodd"/></g></svg>